<svg width="292" height="24" viewBox="0 0 292 24" fill="none" xmlns="http://www.w3.org/2000/svg">
<path d="M10.7942 0.5C8.5686 0.836585 8.12348 2.07073 8.12348 3.52927V22.2659H20.253C22.7012 22.2659 23.7027 20.3585 24.1479 18.4512V23.5H0C2.22561 23.1634 2.67073 21.9293 2.67073 20.4707V3.52927C2.67073 2.07073 2.22561 0.836585 0 0.5H10.7942Z" fill="black"/>
<path d="M33.7181 0.5C31.4925 0.836585 31.0474 2.07073 31.0474 3.52927V13.2902C31.0474 20.1341 35.7211 21.0317 40.9513 21.1439C41.3964 21.1439 41.9528 21.1439 42.398 21.1439C43.5108 21.1439 44.6236 21.0317 45.7364 21.0317C46.8492 20.9195 47.962 20.5829 48.9635 20.022C50.9666 18.9 52.0794 16.6561 52.0794 12.2805V8.91463C52.0794 7.68049 52.0794 6.22195 52.0794 5.21219V3.52927C51.9681 1.84634 51.4117 0.948781 50.1876 0.5H55.0839C53.8599 0.836585 53.1922 1.84634 53.1922 3.52927V8.80244C53.1922 9.5878 53.1922 10.261 53.1922 10.822C53.0809 13.4024 53.1922 16.8805 52.0794 19.2366C49.6312 23.9488 45.18 23.5 40.1723 23.5C35.1647 23.5 31.1586 23.0512 29.712 22.378C27.2638 21.2561 25.7059 19.0122 25.7059 14.3V3.52927C25.7059 2.07073 25.2608 0.836585 23.0352 0.5H33.7181Z" fill="black"/>
<path d="M75.2255 22.0415C75.2255 21.7049 75.1143 21.3683 74.8917 21.0317C74.6692 20.6951 74.3353 20.1341 74.0015 19.6854L69.2164 13.0659C69.1051 12.9537 68.9938 12.7293 68.8826 12.6171L62.8734 20.022C62.2057 20.8073 61.8719 21.5927 61.7606 22.1537C61.6493 22.8268 61.8719 23.1634 62.4283 23.3878H55.7515C58.5335 23.0512 60.6478 20.8073 62.5396 18.6756L68.2149 11.6073C66.4344 9.25122 64.6539 6.78293 62.8734 4.42683C61.6493 2.63171 60.5365 1.39756 58.5335 0.5H69.6615C68.9938 0.72439 68.5487 0.948781 68.3262 1.17317C68.1036 1.50976 67.9923 1.73415 67.9923 2.07073C67.9923 2.40732 68.2149 2.7439 68.4374 3.19268C68.66 3.64146 68.9938 3.97805 69.2164 4.42683L72.4435 8.91463L76.4496 3.97805C77.1173 3.19268 77.4512 2.51951 77.5624 1.84634C77.6737 1.17317 77.4512 0.836585 76.8948 0.612195H83.9054C81.1234 0.948781 78.8978 2.96829 77.006 5.21219L73.2225 9.92439C74.4466 11.6073 75.6707 13.178 76.8948 14.861C78.1188 16.5439 79.2317 18.1146 80.4557 19.7976C81.5685 21.4805 82.9039 22.7146 84.6844 23.5H73.5563C74.1127 23.2756 75.2255 22.939 75.2255 22.0415Z" fill="black"/>
<path d="M96.035 0.5C93.8094 0.836585 93.3643 2.07073 93.3643 3.52927V13.2902C93.3643 20.1341 98.038 21.0317 103.268 21.1439C103.713 21.1439 104.27 21.1439 104.715 21.1439C105.828 21.1439 106.94 21.0317 108.053 21.0317C109.166 20.9195 110.279 20.5829 111.28 20.022C113.283 18.9 114.396 16.6561 114.396 12.2805V8.91463C114.396 7.68049 114.396 6.22195 114.396 5.21219V3.52927C114.285 1.84634 113.729 0.948781 112.504 0.5H117.401C116.177 0.836585 115.509 1.84634 115.509 3.52927V8.80244C115.509 9.5878 115.509 10.261 115.509 10.822C115.398 13.4024 115.509 16.8805 114.396 19.2366C111.948 23.9488 107.497 23.5 102.489 23.5C97.4816 23.5 93.4755 23.0512 92.0289 22.378C89.5807 21.2561 88.0228 19.0122 88.0228 14.3V3.52927C88.0228 2.07073 87.5777 0.836585 85.3521 0.5H96.035Z" fill="black"/>
<path d="M132.646 0.5C146.668 0.612195 147.669 3.30488 147.669 6.89512C147.669 9.92439 144.776 11.4951 141.104 12.2805L148.114 21.5927C149.116 22.8268 150.563 23.2756 151.675 23.3878H140.102C140.77 23.2756 141.326 23.0512 141.66 22.8268C141.994 22.6024 141.883 22.378 141.883 22.2659C141.883 22.0415 141.771 21.8171 141.66 21.5927L135.54 12.9537C134.872 12.9537 134.204 13.0659 133.537 13.0659H126.86V20.4707C126.86 21.9293 127.305 23.1634 129.531 23.5H118.736C120.962 23.1634 121.407 21.9293 121.407 20.4707V3.52927C121.407 2.07073 120.962 0.836585 118.736 0.5H132.646ZM126.749 1.73415V11.8317H133.425C141.104 11.8317 142.328 10.4854 142.328 6.89512C142.328 3.30488 140.213 1.73415 130.755 1.73415H126.749Z" fill="black"/>
<path d="M165.029 0.499997C163.805 0.612192 163.805 1.17317 163.805 1.50975C163.805 1.73414 163.916 2.29512 164.584 3.08048C164.918 3.52927 165.252 3.97805 165.697 4.31463L172.485 11.1585L179.495 3.41707C179.829 3.08048 180.386 2.51951 180.72 1.84634C180.831 1.50975 180.942 1.28536 180.942 1.06097C180.942 0.948778 181.053 0.612192 180.274 0.387802H185.171C183.39 0.836583 182.277 1.95853 180.942 3.41707L173.264 11.9439V20.3585C173.264 21.8171 173.709 23.0512 175.934 23.3878H165.14C167.366 23.0512 167.811 21.8171 167.811 20.3585V13.0659C164.918 10.1488 162.024 7.2317 159.131 4.31463C156.905 2.07073 154.902 0.836583 152.566 0.387802H165.029V0.499997Z" fill="black"/>
<path d="M208.206 0.5C205.98 0.836585 205.535 2.07073 205.535 3.52927V11.3829H220.892V3.52927C220.892 2.07073 220.447 0.836585 218.221 0.5H229.015C226.79 0.836585 226.344 2.07073 226.344 3.52927V20.4707C226.344 21.9293 226.79 23.1634 229.015 23.5H218.11C220.335 23.1634 220.78 21.9293 220.78 20.4707V12.6171H205.424V20.4707C205.424 21.9293 205.869 23.1634 208.094 23.5H197.3C199.526 23.1634 199.971 21.9293 199.971 20.4707V3.52927C199.971 2.07073 199.526 0.836585 197.3 0.5H208.206Z" fill="black"/>
<path d="M240.588 0.5C238.363 0.836585 237.918 2.07073 237.918 3.52927V13.2902C237.918 20.1341 242.591 21.0317 247.822 21.1439C248.267 21.1439 248.823 21.1439 249.268 21.1439C250.381 21.1439 251.494 21.0317 252.607 21.0317C253.72 20.9195 254.832 20.5829 255.834 20.022C257.837 18.9 258.95 16.6561 258.95 12.2805V8.91463C258.95 7.68049 258.95 6.22195 258.95 5.21219V3.52927C258.838 1.84634 258.171 0.836585 257.058 0.5H261.954C260.73 0.836585 260.063 1.84634 260.063 3.52927V8.80244C260.063 9.5878 260.063 10.261 260.063 10.822C259.951 13.4024 260.063 16.8805 258.95 19.2366C256.502 23.9488 252.05 23.5 247.043 23.5C242.035 23.5 238.029 23.0512 236.582 22.378C234.134 21.2561 232.576 19.0122 232.576 14.3V3.52927C232.576 2.07073 232.131 0.836585 229.906 0.5H240.588Z" fill="black"/>
<path d="M274.751 0.5C287.437 0.5 289.552 2.51951 289.552 5.77317C289.552 8.46585 287.215 9.7 283.988 10.3732C291.221 11.4951 291.889 14.5244 291.889 16.6561C291.889 22.7146 284.099 23.3878 277.534 23.3878H262.844C265.07 23.0512 265.515 21.8171 265.515 20.3585V4.20244C265.515 1.95854 265.07 0.836585 262.844 0.5H274.751ZM270.968 9.92439H274.084C281.762 9.92439 284.21 8.46585 284.21 5.88537C284.21 2.51951 279.203 1.84634 273.194 1.84634H271.079V9.92439H270.968ZM270.968 11.0463V22.1537H277.645C285.323 22.1537 286.547 20.2463 286.547 16.5439C286.547 13.4024 284.433 10.9341 274.974 10.9341H270.968V11.0463Z" fill="black"/>
</svg>
