<svg width="36" height="36" viewBox="0 0 36 36" fill="none" xmlns="http://www.w3.org/2000/svg">
<path d="M1.29169 1.375H4.53752C5.98752 1.375 6.71252 1.375 7.25835 1.76875C7.80419 2.1625 8.03335 2.85 8.49169 4.225L9.62502 7.625" stroke="black" stroke-width="2" stroke-linecap="round"/>
<path d="M30.4584 28.4583H10.7709C10.4688 28.4583 10.3167 28.4583 10.2001 28.4458C9.91079 28.4136 9.63149 28.321 9.38017 28.1742C9.12886 28.0274 8.91109 27.8296 8.74091 27.5934C8.57074 27.3573 8.45193 27.0881 8.39214 26.8033C8.33236 26.5184 8.33292 26.2242 8.3938 25.9396C8.44189 25.7552 8.4982 25.5731 8.56255 25.3938C8.67088 25.0729 8.72297 24.9125 8.78338 24.7688C9.07995 24.0584 9.56748 23.4441 10.1919 22.994C10.8163 22.5439 11.5532 22.2756 12.3209 22.2188C12.475 22.2083 12.6438 22.2083 12.9813 22.2083H24.2084" stroke="black" stroke-width="2" stroke-linecap="round" stroke-linejoin="round"/>
<path d="M23.5396 22.2083H17.2042C14.5375 22.2083 13.2042 22.2083 12.1625 21.5208C11.1188 20.8333 10.5938 19.6083 9.54379 17.1583L9.1917 16.3375C7.5042 12.4 6.66254 10.4354 7.58754 9.02917C8.5167 7.625 10.6584 7.625 14.9375 7.625H25.9375C30.7292 7.625 33.123 7.625 34.0271 9.18125C34.9292 10.7375 33.7417 12.8167 31.3646 16.975L30.775 18.0104C29.6042 20.0583 29.0188 21.0833 28.048 21.6458C27.0792 22.2083 25.898 22.2083 23.5396 22.2083Z" stroke="black" stroke-width="2" stroke-linecap="round"/>
<path d="M29.4167 35.75C30.5673 35.75 31.5 34.8173 31.5 33.6667C31.5 32.5161 30.5673 31.5833 29.4167 31.5833C28.2661 31.5833 27.3334 32.5161 27.3334 33.6667C27.3334 34.8173 28.2661 35.75 29.4167 35.75Z" fill="black"/>
<path d="M12.75 35.75C13.9006 35.75 14.8334 34.8173 14.8334 33.6667C14.8334 32.5161 13.9006 31.5833 12.75 31.5833C11.5994 31.5833 10.6667 32.5161 10.6667 33.6667C10.6667 34.8173 11.5994 35.75 12.75 35.75Z" fill="black"/>
</svg>
