<svg width="41" height="42" viewBox="0 0 41 42" fill="none" xmlns="http://www.w3.org/2000/svg">
<path d="M20.5 4.2C18.3252 4.2 16.2395 5.08499 14.7017 6.6603C13.1639 8.23561 12.3 10.3722 12.3 12.6C12.3 14.8278 13.1639 16.9644 14.7017 18.5397C16.2395 20.115 18.3252 21 20.5 21C22.6748 21 24.7605 20.115 26.2983 18.5397C27.8361 16.9644 28.7 14.8278 28.7 12.6C28.7 10.3722 27.8361 8.23561 26.2983 6.6603C24.7605 5.08499 22.6748 4.2 20.5 4.2ZM14.35 12.6C14.35 10.9291 14.998 9.3267 16.1513 8.14522C17.3047 6.96375 18.8689 6.3 20.5 6.3C22.1311 6.3 23.6954 6.96375 24.8487 8.14522C26.0021 9.3267 26.65 10.9291 26.65 12.6C26.65 14.2709 26.0021 15.8733 24.8487 17.0548C23.6954 18.2362 22.1311 18.9 20.5 18.9C18.8689 18.9 17.3047 18.2362 16.1513 17.0548C14.998 15.8733 14.35 14.2709 14.35 12.6ZM10.2685 23.1C9.72858 23.0978 9.19357 23.2048 8.69412 23.4148C8.19468 23.6249 7.74063 23.9339 7.35801 24.3241C6.97538 24.7143 6.67172 25.178 6.46443 25.6887C6.25713 26.1994 6.15029 26.7469 6.15002 27.3C6.15002 30.8511 7.85767 33.5286 10.5268 35.2737C13.1549 36.9894 16.6973 37.8 20.5 37.8C24.3028 37.8 27.8452 36.9894 30.4733 35.2737C33.1424 33.5307 34.85 30.849 34.85 27.3C34.85 26.1861 34.4181 25.1178 33.6492 24.3301C32.8803 23.5425 31.8374 23.1 30.75 23.1H10.2685ZM8.20002 27.3C8.20002 26.1387 9.11842 25.2 10.2685 25.2H30.75C31.2937 25.2 31.8151 25.4212 32.1996 25.8151C32.584 26.2089 32.8 26.743 32.8 27.3C32.8 30.0489 31.5249 32.0964 29.3704 33.5013C27.1769 34.9356 24.0568 35.7 20.5 35.7C16.9433 35.7 13.8232 34.9356 11.6297 33.5013C9.47717 32.0943 8.20002 30.051 8.20002 27.3Z" fill="black"/>
</svg>
