<svg width="30" height="30" viewBox="0 0 30 30" fill="none" xmlns="http://www.w3.org/2000/svg">
<path d="M26.25 26.25L20.8213 20.8212M20.8213 20.8212C21.7499 19.8926 22.4865 18.7902 22.989 17.5769C23.4916 16.3636 23.7503 15.0633 23.7503 13.75C23.7503 12.4367 23.4916 11.1364 22.989 9.92307C22.4865 8.70978 21.7499 7.60736 20.8213 6.67875C19.8927 5.75014 18.7902 5.01352 17.5769 4.51096C16.3637 4.0084 15.0633 3.74974 13.75 3.74974C12.4368 3.74974 11.1364 4.0084 9.92308 4.51096C8.70979 5.01352 7.60737 5.75014 6.67876 6.67875C4.80335 8.55416 3.74976 11.0978 3.74976 13.75C3.74976 16.4022 4.80335 18.9458 6.67876 20.8212C8.55418 22.6967 11.0978 23.7503 13.75 23.7503C16.4022 23.7503 18.9459 22.6967 20.8213 20.8212Z" stroke="black" stroke-width="2" stroke-linecap="round" stroke-linejoin="round"/>
</svg>
