<svg width="95" height="94" viewBox="0 0 95 94" fill="none" xmlns="http://www.w3.org/2000/svg">
<path fill-rule="evenodd" clip-rule="evenodd" d="M71.3503 9.98356C69.1883 8.76939 66.8853 8.65189 64.4531 8.95347C62.1422 9.24331 59.3261 9.97181 55.9461 10.8531L48.0383 12.9054C44.6582 13.7866 41.8461 14.5151 39.6958 15.3886C37.4281 16.3051 35.4697 17.5349 34.2007 19.6695C32.9239 21.8158 32.7986 24.111 33.1158 26.508C33.4174 28.7679 34.1733 31.5096 35.0741 34.7761L37.2009 42.4684C38.1017 45.7388 38.8616 48.4766 39.7663 50.5759C40.7259 52.8084 42.0066 54.708 44.1843 55.93C46.3463 57.1402 48.6493 57.2616 51.0855 56.9561C53.3963 56.6702 56.2124 55.9378 59.5925 55.0566L67.5002 53.0042C70.8803 52.1269 73.6925 51.3945 75.8427 50.5211C78.1105 49.6046 80.0688 48.3747 81.3378 46.2401C82.6146 44.0938 82.74 41.7986 82.4227 39.4056C82.1211 37.1456 81.3652 34.4001 80.4644 31.1336L78.3376 23.4412C77.4368 20.1747 76.677 17.4331 75.7722 15.3337C74.8126 13.1012 73.5241 11.2016 71.3503 9.98356ZM57.2346 16.5871C60.8576 15.6471 63.2976 15.0204 65.1855 14.7854C66.9911 14.5582 67.8566 14.758 68.4872 15.1105C69.1021 15.4551 69.6936 16.0544 70.379 17.6563C71.1035 19.3405 71.7616 21.6866 72.7329 25.2037L74.7461 32.5005C75.7213 36.0176 76.3636 38.3676 76.6026 40.1771C76.8297 41.8966 76.6261 42.676 76.2892 43.2361C75.9485 43.8118 75.3296 44.3954 73.6455 45.0769C71.8908 45.7858 69.4546 46.4281 65.8317 47.3681L58.3117 49.3226C54.6888 50.2626 52.2487 50.8892 50.3609 51.1242C48.5514 51.3553 47.6897 51.1556 47.0591 50.8031C46.4442 50.4584 45.8528 49.8552 45.1674 48.2572C44.4428 46.5731 43.7848 44.2231 42.8135 40.7059L40.8003 33.4131C39.8251 29.8881 39.1827 27.542 38.9438 25.7364C38.7166 24.0131 38.9203 23.2376 39.2571 22.6736C39.5979 22.0978 40.2167 21.5142 41.9009 20.8327C43.6556 20.1238 46.0917 19.4854 49.7146 18.5415L57.2346 16.5871Z" fill="black"/>
<path fill-rule="evenodd" clip-rule="evenodd" d="M13.0315 18.5063C12.2895 18.3243 11.5058 18.4387 10.8466 18.825C10.1875 19.2113 9.70483 19.8393 9.501 20.5756C9.29718 21.3119 9.38825 22.0987 9.75488 22.7689C10.1215 23.4392 10.7349 23.9403 11.4648 24.1658L18.1349 26.0184C19.8034 26.4806 21.045 27.7418 21.468 29.2732L29.1133 56.9366C28.8175 56.9952 28.5236 57.0631 28.2321 57.1402C20.4888 59.1495 15.7575 66.9397 17.8803 74.636C19.9953 82.2931 28.0402 86.7072 35.7521 84.7018C42.5044 82.9511 46.9655 76.8058 46.5895 70.1632L79.5678 61.5935C79.9412 61.4965 80.2919 61.327 80.5998 61.0945C80.9077 60.862 81.1668 60.5712 81.3622 60.2386C81.5577 59.906 81.6858 59.5382 81.7391 59.1561C81.7924 58.774 81.77 58.3851 81.673 58.0117C81.5761 57.6383 81.4065 57.2876 81.174 56.9797C80.9416 56.6719 80.6507 56.4128 80.3181 56.2173C79.9855 56.0218 79.6177 55.8937 79.2356 55.8404C78.8535 55.7871 78.4647 55.8095 78.0912 55.9065L45.0424 64.4957C44.0537 62.6064 42.6622 60.9571 40.9662 59.6645C39.2702 58.3719 37.3111 57.4674 35.2272 57.0149L27.1315 27.7065C26.6346 25.9434 25.6893 24.3391 24.3879 23.0501C23.0865 21.761 21.4732 20.8311 19.7055 20.351L13.0315 18.5063ZM29.7126 62.8233C34.4596 61.5935 39.2222 64.3469 40.4442 68.7727C41.6584 73.1594 38.9951 77.7928 34.2794 79.0187C29.5324 80.2525 24.7697 77.4952 23.5477 73.0693C22.3336 68.6827 24.9969 64.0493 29.7126 62.8233Z" fill="black"/>
</svg>
