<svg width="89" height="68" viewBox="0 0 89 68" fill="none" xmlns="http://www.w3.org/2000/svg">
<path d="M85.625 26.625H81.6594L71.4589 3.67578C70.9973 2.63747 70.2445 1.75531 69.2916 1.13618C68.3388 0.517049 67.2269 0.187514 66.0906 0.1875H22.9094C21.7731 0.187514 20.6612 0.517049 19.7084 1.13618C18.7555 1.75531 18.0027 2.63747 17.5411 3.67578L7.34062 26.625H3.375C2.59593 26.625 1.84876 26.9345 1.29787 27.4854C0.746986 28.0363 0.4375 28.7834 0.4375 29.5625C0.4375 30.3416 0.746986 31.0887 1.29787 31.6396C1.84876 32.1905 2.59593 32.5 3.375 32.5H6.3125V61.875C6.3125 63.4331 6.93147 64.9275 8.03325 66.0293C9.13502 67.131 10.6294 67.75 12.1875 67.75H21C22.5581 67.75 24.0525 67.131 25.1543 66.0293C26.256 64.9275 26.875 63.4331 26.875 61.875V56H62.125V61.875C62.125 63.4331 62.744 64.9275 63.8457 66.0293C64.9475 67.131 66.4419 67.75 68 67.75H76.8125C78.3706 67.75 79.865 67.131 80.9668 66.0293C82.0685 64.9275 82.6875 63.4331 82.6875 61.875V32.5H85.625C86.4041 32.5 87.1512 32.1905 87.7021 31.6396C88.253 31.0887 88.5625 30.3416 88.5625 29.5625C88.5625 28.7834 88.253 28.0363 87.7021 27.4854C87.1512 26.9345 86.4041 26.625 85.625 26.625ZM22.9094 6.0625H66.0906L75.2299 26.625H13.7701L22.9094 6.0625ZM21 61.875H12.1875V56H21V61.875ZM68 61.875V56H76.8125V61.875H68ZM76.8125 50.125H12.1875V32.5H76.8125V50.125ZM18.0625 41.3125C18.0625 40.5334 18.372 39.7863 18.9229 39.2354C19.4738 38.6845 20.2209 38.375 21 38.375H26.875C27.6541 38.375 28.4012 38.6845 28.9521 39.2354C29.503 39.7863 29.8125 40.5334 29.8125 41.3125C29.8125 42.0916 29.503 42.8387 28.9521 43.3896C28.4012 43.9405 27.6541 44.25 26.875 44.25H21C20.2209 44.25 19.4738 43.9405 18.9229 43.3896C18.372 42.8387 18.0625 42.0916 18.0625 41.3125ZM59.1875 41.3125C59.1875 40.5334 59.497 39.7863 60.0479 39.2354C60.5988 38.6845 61.3459 38.375 62.125 38.375H68C68.7791 38.375 69.5262 38.6845 70.0771 39.2354C70.628 39.7863 70.9375 40.5334 70.9375 41.3125C70.9375 42.0916 70.628 42.8387 70.0771 43.3896C69.5262 43.9405 68.7791 44.25 68 44.25H62.125C61.3459 44.25 60.5988 43.9405 60.0479 43.3896C59.497 42.8387 59.1875 42.0916 59.1875 41.3125Z" fill="black"/>
</svg>
